<mxfile host="app.diagrams.net" modified="2024-07-08T06:02:49.244Z" agent="Mozilla/5.0 (Windows NT 10.0; Win64; x64) AppleWebKit/537.36 (KHTML, like Gecko) Chrome/117.0.0.0 Safari/537.36" etag="LdFsynfOLQCbMj5YaRhK" version="24.6.4" type="github">
  <diagram name="Page-1" id="e7e014a7-5840-1c2e-5031-d8a46d1fe8dd">
    <mxGraphModel dx="1674" dy="782" grid="1" gridSize="10" guides="1" tooltips="1" connect="1" arrows="1" fold="1" page="1" pageScale="1" pageWidth="1169" pageHeight="826" background="none" math="0" shadow="0">
      <root>
        <mxCell id="0" />
        <mxCell id="1" parent="0" />
        <mxCell id="2" value="开发者" style="swimlane;whiteSpace=wrap" parent="1" vertex="1">
          <mxGeometry x="164.5" y="128" width="280" height="570" as="geometry">
            <mxRectangle x="164.5" y="128" width="80" height="30" as="alternateBounds" />
          </mxGeometry>
        </mxCell>
        <mxCell id="7" value="查看codereview给出的建议" style="" parent="2" vertex="1">
          <mxGeometry x="55" y="72" width="170" height="48" as="geometry" />
        </mxCell>
        <mxCell id="-ih0tbA50po93VNqoT3x-71" style="edgeStyle=orthogonalEdgeStyle;rounded=0;orthogonalLoop=1;jettySize=auto;html=1;entryX=0.5;entryY=0;entryDx=0;entryDy=0;strokeColor=#FF0000;" edge="1" parent="2" source="-ih0tbA50po93VNqoT3x-63" target="-ih0tbA50po93VNqoT3x-69">
          <mxGeometry relative="1" as="geometry" />
        </mxCell>
        <mxCell id="-ih0tbA50po93VNqoT3x-63" value="根据codereview建议对代码整改" style="rounded=0;whiteSpace=wrap;html=1;" vertex="1" parent="2">
          <mxGeometry x="46.18" y="162" width="187.63" height="48" as="geometry" />
        </mxCell>
        <mxCell id="-ih0tbA50po93VNqoT3x-65" value="" style="endArrow=classic;html=1;rounded=0;exitX=0.5;exitY=1;exitDx=0;exitDy=0;entryX=0.5;entryY=0;entryDx=0;entryDy=0;strokeColor=#FF0000;" edge="1" parent="2" source="7" target="-ih0tbA50po93VNqoT3x-63">
          <mxGeometry width="50" height="50" relative="1" as="geometry">
            <mxPoint x="85.5" y="322" as="sourcePoint" />
            <mxPoint x="135.5" y="272" as="targetPoint" />
          </mxGeometry>
        </mxCell>
        <mxCell id="-ih0tbA50po93VNqoT3x-69" value="整改后的代码" style="rounded=0;whiteSpace=wrap;html=1;" vertex="1" parent="2">
          <mxGeometry x="80" y="342" width="120" height="48" as="geometry" />
        </mxCell>
        <mxCell id="3" value="Codereview服务器" style="swimlane;whiteSpace=wrap" parent="1" vertex="1">
          <mxGeometry x="445" y="128" width="280" height="570" as="geometry">
            <mxRectangle x="445" y="128" width="140" height="30" as="alternateBounds" />
          </mxGeometry>
        </mxCell>
        <mxCell id="15" value="定时从gitlab仓库获取差异代码" style="" parent="3" vertex="1">
          <mxGeometry x="50" y="72" width="180" height="48" as="geometry" />
        </mxCell>
        <mxCell id="-ih0tbA50po93VNqoT3x-53" value="" style="edgeStyle=orthogonalEdgeStyle;strokeColor=#FF0000;rounded=0;orthogonalLoop=1;jettySize=auto;html=1;" edge="1" parent="3" source="16" target="-ih0tbA50po93VNqoT3x-49">
          <mxGeometry relative="1" as="geometry" />
        </mxCell>
        <mxCell id="16" value="按开作者归类代码" style="" parent="3" vertex="1">
          <mxGeometry x="50" y="252" width="180" height="48" as="geometry" />
        </mxCell>
        <mxCell id="-ih0tbA50po93VNqoT3x-43" value="" style="endArrow=open;strokeColor=#FF0000;endFill=1;rounded=0;entryX=0.5;entryY=0;entryDx=0;entryDy=0;" edge="1" parent="3" source="15" target="-ih0tbA50po93VNqoT3x-51">
          <mxGeometry relative="1" as="geometry">
            <mxPoint x="585" y="250" as="sourcePoint" />
            <mxPoint x="139.85287959468542" y="154.08271726205862" as="targetPoint" />
          </mxGeometry>
        </mxCell>
        <mxCell id="-ih0tbA50po93VNqoT3x-49" value="组装Codereview的prompt" style="rounded=0;whiteSpace=wrap;html=1;" vertex="1" parent="3">
          <mxGeometry x="60" y="342" width="160" height="48" as="geometry" />
        </mxCell>
        <mxCell id="-ih0tbA50po93VNqoT3x-51" value="分析过滤代码" style="rounded=0;whiteSpace=wrap;html=1;" vertex="1" parent="3">
          <mxGeometry x="80" y="162" width="120" height="48" as="geometry" />
        </mxCell>
        <mxCell id="-ih0tbA50po93VNqoT3x-52" value="" style="endArrow=open;strokeColor=#FF0000;endFill=1;rounded=0;exitX=0.5;exitY=1;exitDx=0;exitDy=0;" edge="1" parent="3" source="-ih0tbA50po93VNqoT3x-51" target="16">
          <mxGeometry relative="1" as="geometry">
            <mxPoint x="150" y="130" as="sourcePoint" />
            <mxPoint x="150" y="172" as="targetPoint" />
          </mxGeometry>
        </mxCell>
        <mxCell id="-ih0tbA50po93VNqoT3x-60" value="review后的代码" style="rounded=0;whiteSpace=wrap;html=1;" vertex="1" parent="3">
          <mxGeometry x="60" y="432" width="160" height="48" as="geometry" />
        </mxCell>
        <mxCell id="4" value="Chatgpt" style="swimlane;whiteSpace=wrap" parent="1" vertex="1">
          <mxGeometry x="724.5" y="128" width="280" height="570" as="geometry">
            <mxRectangle x="724.5" y="128" width="80" height="30" as="alternateBounds" />
          </mxGeometry>
        </mxCell>
        <mxCell id="-ih0tbA50po93VNqoT3x-55" value="对代码进行review建议" style="rounded=0;whiteSpace=wrap;html=1;" vertex="1" parent="4">
          <mxGeometry x="60" y="342" width="160" height="48" as="geometry" />
        </mxCell>
        <mxCell id="-ih0tbA50po93VNqoT3x-59" value="" style="endArrow=classic;html=1;rounded=0;exitX=1;exitY=0.5;exitDx=0;exitDy=0;entryX=0;entryY=0.5;entryDx=0;entryDy=0;strokeColor=#FF0000;" edge="1" parent="1" source="-ih0tbA50po93VNqoT3x-49" target="-ih0tbA50po93VNqoT3x-55">
          <mxGeometry width="50" height="50" relative="1" as="geometry">
            <mxPoint x="650" y="540" as="sourcePoint" />
            <mxPoint x="780" y="494" as="targetPoint" />
          </mxGeometry>
        </mxCell>
        <mxCell id="-ih0tbA50po93VNqoT3x-61" value="" style="endArrow=classic;html=1;rounded=0;exitX=0.5;exitY=1;exitDx=0;exitDy=0;entryX=1;entryY=0.5;entryDx=0;entryDy=0;strokeColor=#FF0000;" edge="1" parent="1" source="-ih0tbA50po93VNqoT3x-55" target="-ih0tbA50po93VNqoT3x-60">
          <mxGeometry width="50" height="50" relative="1" as="geometry">
            <mxPoint x="810" y="630" as="sourcePoint" />
            <mxPoint x="860" y="580" as="targetPoint" />
            <Array as="points">
              <mxPoint x="865" y="584" />
            </Array>
          </mxGeometry>
        </mxCell>
        <mxCell id="-ih0tbA50po93VNqoT3x-68" value="" style="endArrow=classic;html=1;rounded=0;exitX=0;exitY=0.5;exitDx=0;exitDy=0;entryX=1;entryY=0.5;entryDx=0;entryDy=0;strokeColor=#FF0000;" edge="1" parent="1" source="-ih0tbA50po93VNqoT3x-60" target="7">
          <mxGeometry width="50" height="50" relative="1" as="geometry">
            <mxPoint x="310" y="580" as="sourcePoint" />
            <mxPoint x="360" y="530" as="targetPoint" />
            <Array as="points">
              <mxPoint x="430" y="584" />
              <mxPoint x="430" y="224" />
            </Array>
          </mxGeometry>
        </mxCell>
        <mxCell id="-ih0tbA50po93VNqoT3x-70" value="" style="endArrow=classic;html=1;rounded=0;exitX=1;exitY=0.5;exitDx=0;exitDy=0;entryX=0;entryY=0.5;entryDx=0;entryDy=0;strokeColor=#FF0000;" edge="1" parent="1" source="-ih0tbA50po93VNqoT3x-69" target="-ih0tbA50po93VNqoT3x-49">
          <mxGeometry width="50" height="50" relative="1" as="geometry">
            <mxPoint x="340" y="630" as="sourcePoint" />
            <mxPoint x="390" y="580" as="targetPoint" />
          </mxGeometry>
        </mxCell>
      </root>
    </mxGraphModel>
  </diagram>
</mxfile>
